<?xml version="1.0" standalone="no"?>
<!DOCTYPE svg PUBLIC "-//W3C//DTD SVG 20010904//EN"
 "http://www.w3.org/TR/2001/REC-SVG-20010904/DTD/svg10.dtd">
<svg version="1.0" xmlns="http://www.w3.org/2000/svg"
 width="341.000000pt" height="286.000000pt" viewBox="0 0 341.000000 286.000000"
 preserveAspectRatio="xMidYMid meet">

<g transform="translate(0.000000,286.000000) scale(0.100000,-0.100000)"
fill="#000000" stroke="none">
<path d="M490 1986 l0 -776 165 0 165 0 0 565 c0 311 3 565 8 565 4 -1 80 -92
168 -203 362 -453 342 -431 423 -471 76 -39 166 -52 253 -36 75 13 128 34 128
49 0 5 -70 94 -157 198 -125 150 -314 381 -433 527 -8 10 -20 23 -25 30 -6 6
-49 59 -97 117 -90 110 -129 143 -213 181 -44 19 -71 22 -217 26 l-168 4 0
-776z"/>
<path d="M2377 2749 c-45 -11 -110 -43 -154 -76 -28 -22 -112 -119 -218 -252
-16 -21 -91 -111 -165 -201 -74 -89 -143 -173 -154 -187 -18 -23 -18 -24 20
-66 22 -24 48 -54 59 -68 75 -91 119 -139 129 -139 6 1 31 27 56 59 112 147
416 520 423 520 4 1 7 -253 7 -564 l0 -565 165 0 165 0 0 775 0 775 -147 -1
c-82 -1 -165 -5 -186 -10z"/>
<path d="M1000 735 l0 -196 33 3 32 3 0 190 0 190 -32 3 -33 3 0 -196z"/>
<path d="M1353 914 c-14 -38 41 -71 66 -40 7 8 10 24 6 36 -8 25 -62 28 -72 4z"/>
<path d="M2590 866 c0 -36 -3 -66 -7 -66 -5 1 -19 7 -33 15 -77 44 -180 -32
-180 -132 0 -107 101 -174 191 -127 28 14 32 14 43 -1 7 -10 21 -15 32 -13 18
3 19 13 19 193 l0 190 -32 3 -33 3 0 -65z m-17 -128 c42 -49 6 -138 -57 -138
-60 0 -97 73 -65 131 22 42 89 46 122 7z"/>
<path d="M2726 915 c-10 -28 12 -57 42 -53 23 2 27 8 27 33 0 26 -4 30 -31 33
-22 2 -33 -2 -38 -13z"/>
<path d="M1590 887 c-65 -32 -99 -87 -100 -160 0 -83 30 -132 107 -171 44 -22
125 -21 172 3 58 30 65 44 36 71 l-25 23 -25 -23 c-20 -19 -37 -24 -76 -24
-47 0 -55 4 -85 37 -28 30 -34 45 -34 82 0 37 5 50 35 80 30 30 42 35 81 35
31 0 56 -7 75 -21 l30 -21 23 25 c22 24 23 27 7 40 -54 49 -150 59 -221 24z"/>
<path d="M222 723 l3 -178 32 -3 32 -3 3 118 3 118 54 -82 c29 -46 59 -83 65
-83 6 0 34 38 61 84 l50 84 5 -117 5 -116 30 0 30 0 3 178 2 177 -35 0 c-39 0
-30 10 -120 -139 l-33 -54 -43 74 c-24 41 -48 83 -54 94 -8 14 -23 21 -53 23
l-42 3 2 -178z"/>
<path d="M1160 855 c0 -28 -4 -35 -20 -35 -14 0 -20 -7 -20 -24 0 -15 7 -26
20 -29 18 -5 20 -14 20 -92 0 -78 2 -88 25 -110 43 -44 147 -27 112 18 -6 8
-23 17 -37 19 -24 3 -25 5 -25 83 l0 80 30 5 c22 4 30 11 30 25 0 15 -8 21
-32 23 -30 3 -33 6 -33 38 0 32 -2 34 -35 34 -33 0 -35 -2 -35 -35z"/>
<path d="M2880 855 c0 -28 -4 -35 -20 -35 -15 0 -20 -7 -20 -25 0 -18 5 -25
20 -25 18 0 20 -7 20 -84 0 -76 3 -87 26 -115 20 -24 34 -31 62 -31 49 0 66
12 57 39 -4 13 -15 21 -29 21 -37 0 -47 22 -44 97 l3 68 35 5 c27 4 35 10 35
25 0 16 -8 21 -37 23 -36 3 -38 5 -38 38 0 32 -2 34 -35 34 -33 0 -35 -2 -35
-35z"/>
<path d="M1982 809 c-39 -23 -42 -23 -42 -4 0 10 -10 15 -30 15 l-30 0 0 -141
0 -140 33 3 32 3 3 90 c2 77 5 92 23 108 12 9 30 17 40 17 14 0 19 7 19 29 0
40 -10 44 -48 20z"/>
<path d="M2145 816 c-39 -18 -69 -52 -85 -98 -12 -31 -11 -43 4 -83 32 -83
126 -118 211 -78 39 19 43 32 18 56 -16 13 -20 14 -37 1 -33 -23 -83 -18 -114
14 l-27 27 109 3 109 3 -6 45 c-5 51 -34 89 -84 110 -40 17 -59 17 -98 0z m93
-62 c43 -30 28 -44 -48 -44 -67 0 -70 1 -60 20 21 40 70 51 108 24z"/>
<path d="M680 718 c0 -57 3 -113 6 -126 13 -47 108 -69 147 -35 18 17 19 17
32 0 6 -9 24 -17 39 -17 l26 0 0 141 0 140 -32 -3 -33 -3 -3 -90 c-2 -77 -5
-92 -23 -107 -26 -22 -49 -23 -74 -4 -16 12 -20 29 -22 107 l-2 94 -30 3 -31
3 0 -103z"/>
<path d="M1359 815 c-3 -2 -4 -64 -2 -137 l3 -133 28 0 27 0 3 138 3 137 -29
0 c-16 0 -31 -2 -33 -5z"/>
<path d="M2732 683 l3 -138 33 -3 32 -3 0 140 0 141 -35 0 -36 0 3 -137z"/>
<path d="M635 372 c-20 -14 -37 -64 -25 -76 5 -5 10 -32 10 -58 0 -26 5 -48
10 -48 6 0 10 24 10 54 0 47 3 55 23 61 l22 8 -23 4 c-16 3 -22 9 -18 20 3 8
6 17 6 19 0 2 7 4 15 4 8 0 15 5 15 10 0 12 -30 13 -45 2z"/>
<path d="M2302 364 c4 -21 22 -23 26 -1 2 10 -3 17 -13 17 -10 0 -15 -6 -13
-16z"/>
<path d="M1320 274 c0 -72 3 -95 13 -92 8 3 13 34 15 96 2 77 0 92 -13 92 -12
0 -15 -16 -15 -96z"/>
<path d="M1418 283 c5 -124 22 -131 22 -10 0 71 -3 97 -12 97 -10 0 -12 -22
-10 -87z"/>
<path d="M2203 343 c2 -26 0 -27 -40 -24 -38 2 -43 0 -58 -29 -13 -26 -14 -37
-5 -60 14 -34 54 -54 80 -40 10 5 26 7 34 4 14 -5 16 6 16 85 0 73 -3 91 -15
91 -9 0 -13 -9 -12 -27z m-16 -51 c11 -7 16 -25 14 -54 -1 -22 -46 -34 -66
-18 -39 32 9 99 52 72z"/>
<path d="M2400 340 c0 -11 -5 -20 -12 -20 -9 0 -9 -3 0 -12 7 -7 12 -33 12
-60 0 -38 4 -50 21 -59 17 -9 25 -8 37 5 15 15 14 16 -6 16 -19 0 -22 5 -22
44 0 36 4 45 23 51 l22 8 -22 4 c-15 3 -23 12 -23 24 0 10 -7 19 -15 19 -8 0
-15 -9 -15 -20z"/>
<path d="M737 302 c-35 -38 -16 -101 34 -117 54 -17 102 73 63 116 -22 24 -76
25 -97 1z m69 -10 c17 -11 22 -35 13 -60 -7 -18 -15 -23 -35 -20 -37 4 -51 29
-36 62 11 25 36 33 58 18z"/>
<path d="M920 247 c0 -43 4 -66 10 -62 6 3 10 24 10 45 0 30 7 45 27 64 l27
25 -37 -2 -37 -2 0 -68z"/>
<path d="M1150 307 c0 -7 13 -12 32 -12 17 0 33 -6 35 -12 3 -8 -4 -13 -19
-13 -29 0 -68 -26 -68 -45 0 -8 12 -22 26 -32 21 -13 30 -14 45 -5 11 7 20 8
24 2 15 -24 25 -6 25 41 0 71 -12 89 -60 89 -26 0 -40 -5 -40 -13z m75 -66 c5
-9 -20 -41 -33 -41 -18 1 -34 20 -29 34 7 17 52 22 62 7z"/>
<path d="M1637 302 c-25 -28 -21 -69 9 -97 33 -30 45 -31 75 -5 l24 20 -42 -6
c-35 -5 -43 -3 -53 15 -23 43 13 81 61 66 15 -5 20 -3 17 6 -7 22 -71 23 -91
1z"/>
<path d="M1802 252 c3 -77 22 -90 26 -20 2 35 8 51 23 58 29 16 23 28 -16 28
l-36 0 3 -66z"/>
<path d="M1939 307 c-39 -31 -32 -90 14 -113 25 -13 34 -14 53 -3 33 17 30 30
-6 23 -29 -6 -60 8 -60 27 0 5 23 9 50 9 42 0 50 3 50 18 0 42 -65 67 -101 39z
m67 -18 c11 -19 -22 -29 -65 -20 -2 1 2 8 9 16 15 18 46 20 56 4z"/>
<path d="M2306 313 c-10 -10 -7 -121 4 -128 6 -4 11 6 11 22 1 15 3 45 4 66 2
36 -5 53 -19 40z"/>
<path d="M2524 306 c-11 -29 1 -50 34 -58 47 -12 45 -43 -3 -35 -44 7 -54 -7
-15 -23 25 -10 34 -10 56 4 34 23 27 47 -19 69 -48 22 -49 42 -1 34 25 -4 34
-2 31 6 -6 19 -76 21 -83 3z"/>
</g>
</svg>
